HIERARCHY
ROOT Hips
{
	OFFSET -3.958830 18.904000 13.208200
	CHANNELS 6 Xposition Yposition Zposition Zrotation Yrotation Xrotation 
	JOINT LHipJoint
	{
		OFFSET 0.000000 0.000000 0.000000
		CHANNELS 3 Zrotation Yrotation Xrotation
		JOINT LeftUpLeg
		{
			OFFSET 1.800000 -1.400000 0.085000
			CHANNELS 3 Zrotation Yrotation Xrotation
			JOINT LeftLeg
			{
				OFFSET 2.215000 -6.000000 0.000000
				CHANNELS 3 Zrotation Yrotation Xrotation
				JOINT LeftFoot
				{
					OFFSET 2.500000 -6.900000 0.000000
					CHANNELS 3 Zrotation Yrotation Xrotation
					JOINT LeftToeBase
					{
						OFFSET 0.200000 -0.500000 1.950000
						CHANNELS 3 Zrotation Yrotation Xrotation
						End Site
						{
							OFFSET 0.000000 0.000000 0.000000
						}
					}
				}
			}
		}
	}
	JOINT RHipJoint
	{
		OFFSET 0.000000 0.000000 0.000000
		CHANNELS 3 Zrotation Yrotation Xrotation
		JOINT RightUpLeg
		{
			OFFSET -1.800000 -1.400000 0.085000
			CHANNELS 3 Zrotation Yrotation Xrotation
			JOINT RightLeg
			{
				OFFSET -2.215000 -6.000000 0.000000
				CHANNELS 3 Zrotation Yrotation Xrotation
				JOINT RightFoot
				{
					OFFSET -2.500000 -6.900000 0.000000
					CHANNELS 3 Zrotation Yrotation Xrotation
					JOINT RightToeBase
					{
						OFFSET -0.200000 -0.500000 1.950000
						CHANNELS 3 Zrotation Yrotation Xrotation
						End Site
						{
							OFFSET 0.000000 0.000000 0.000000
						}
					}
				}
			}
		}
	}
	JOINT LowerBack
	{
		OFFSET 0.000000 0.000000 0.000000
		CHANNELS 3 Zrotation Yrotation Xrotation
		JOINT Spine
		{
			OFFSET -0.087000 1.940000 -0.288900
			CHANNELS 3 Zrotation Yrotation Xrotation
			JOINT Spine1
			{
				OFFSET 0.000000 1.950000 0.060000
				CHANNELS 3 Zrotation Yrotation Xrotation
				JOINT Neck
				{
					OFFSET 0.000000 0.000000 0.000000
					CHANNELS 3 Zrotation Yrotation Xrotation
					JOINT Neck1
					{
						OFFSET 0.000000 1.600000 0.340000
						CHANNELS 3 Zrotation Yrotation Xrotation
						JOINT Head
						{
							OFFSET 0.000000 1.667000 -0.240000
							CHANNELS 3 Zrotation Yrotation Xrotation
							End Site
							{
								OFFSET 0.000000 0.000000 0.000000
							}
						}
					}
				}
				JOINT LeftShoulder
				{
					OFFSET 0.000000 0.000000 0.000000
					CHANNELS 3 Zrotation Yrotation Xrotation
					JOINT LeftArm
					{
						OFFSET 2.700000 1.550000 -0.730000
						CHANNELS 3 Zrotation Yrotation Xrotation
						JOINT LeftForeArm
						{
							OFFSET 5.450000 0.000000 0.000000
							CHANNELS 3 Zrotation Yrotation Xrotation
							JOINT LeftHand
							{
								OFFSET 3.450000 0.000000 0.000000
								CHANNELS 3 Zrotation Yrotation Xrotation
								JOINT LeftHandIndex1
								{
									OFFSET 0.750000 0.000000 0.000000
									CHANNELS 3 Zrotation Yrotation Xrotation
									End Site
									{
										OFFSET 0.000000 0.000000 0.000000
									}
								}
							}
						}
					}
				}
				JOINT RightShoulder
				{
					OFFSET 0.000000 0.000000 0.000000
					CHANNELS 3 Zrotation Yrotation Xrotation
					JOINT RightArm
					{
						OFFSET -2.700000 1.550000 -0.730000
						CHANNELS 3 Zrotation Yrotation Xrotation
						JOINT RightForeArm
						{
							OFFSET -5.450000 0.000000 0.000000
							CHANNELS 3 Zrotation Yrotation Xrotation
							JOINT RightHand
							{
								OFFSET -3.450000 0.000000 0.000000
								CHANNELS 3 Zrotation Yrotation Xrotation
								JOINT RightHandIndex1
								{
									OFFSET -0.750000 0.000000 0.000000
									CHANNELS 3 Zrotation Yrotation Xrotation
									End Site
									{
										OFFSET 0.000000 0.000000 0.000000
									}
								}
							}
						}
					}
				}
			}
		}
	}
}
MOTION
Frames: 10
Frame Time: 0.016667
-0.922890 13.618800 0.035540 -54.148884 -0.603905 -31.578636 -16.302242 13.071226 3.464485 -10.487463 -7.413542 -23.168262 12.896670 7.850784 71.037302 1.121001 12.009546 0.376296 0.414530 0.229200 0.502350 17.536667 -6.521698 4.810903 -26.517344 7.710726 -24.143648 98.971146 -40.614217 23.112324 -2.687728 -11.179584 0.690660 0.185330 0.081060 0.030900 -0.967172 -7.736673 -9.385223 -9.038848 6.240906 47.151413 3.885438 1.543259 21.397923 7.089567 0.658623 -16.868332 -0.613009 11.905817 51.919605 4.390170 10.170160 -10.198450 -15.184385 -26.089363 12.903815 -33.541438 3.711826 -5.186627 22.809658 -5.497466 -2.406772 -3.571186 2.873569 0.755350 -0.076160 0.184450 0.031040 0.301007 31.026947 9.508818 -9.983605 5.250643 -17.681731 -46.182515 21.696214 -12.090720 2.275822 -1.463757 -0.342260 0.354830 -0.009940 -0.268180 
-0.868960 13.543480 0.168110 -52.251469 -0.625887 -33.836174 -16.279306 12.629567 3.634790 -13.741917 -8.233965 -25.157455 14.625171 5.615208 65.857770 0.898735 10.948303 0.702798 0.423900 0.263930 0.469590 17.593931 -6.301574 5.086662 -30.061833 6.629802 -19.831150 109.707370 -33.135506 13.983473 -2.544345 -10.345851 0.943671 0.199740 0.122670 0.032300 -1.084034 -7.378522 -9.537648 -8.412365 6.045519 46.753909 2.387524 2.234461 22.056244 7.318377 0.605322 -16.817588 -0.815171 11.902235 54.801822 5.022140 9.218130 -8.933050 -16.829975 -27.120294 13.692040 -31.847172 3.737423 -3.660789 20.570971 -2.564050 -1.557520 -3.609913 2.842460 0.721930 -0.055190 0.179500 0.064370 1.531362 32.693918 8.360928 -11.394872 7.552679 -19.681650 -53.891418 23.298732 -15.432372 2.290619 -1.480856 -0.325260 0.386690 -0.015350 -0.227650 
-0.811350 13.564480 0.294990 -50.106188 -2.959662 -37.351094 -16.337728 12.478969 3.811892 -19.053490 -7.705191 -27.314138 24.378904 -0.454739 59.814943 0.832822 10.022970 0.947331 0.370730 0.220270 0.504870 17.552393 -6.058730 5.194249 -29.346607 8.400956 -12.086846 111.790680 -26.506849 9.864672 -2.383666 -9.525410 1.140825 0.098890 0.032370 0.063300 -0.968077 -7.490294 -9.665179 -9.481783 8.490930 48.750546 2.858543 4.553339 20.697799 7.484838 1.871256 -17.866017 1.559789 10.374871 60.384636 3.341850 9.960090 -8.726270 -20.405941 -29.333993 15.622462 -30.531598 7.021671 -2.441273 16.656224 2.315292 -0.299086 -3.616061 2.766669 0.734060 -0.089750 0.261760 -0.010960 4.692518 36.093726 8.051036 -13.466397 7.887149 -21.340763 -62.451900 27.131974 -19.288379 2.415129 -1.364357 -0.248110 0.325380 0.002220 -0.233040 
-0.761340 13.450640 0.451030 -46.561946 -11.641536 -40.958733 -16.032929 12.182537 3.473512 -18.563504 -5.429834 -33.731777 29.466119 -1.877342 56.377176 0.774909 9.781733 0.988768 0.433140 0.334780 0.446620 17.792431 -6.482775 5.562774 -28.343962 12.854948 -9.103947 113.962015 -24.820986 9.995860 -2.328083 -9.391767 1.160956 0.171500 0.072560 0.063180 -1.768139 -5.650479 -9.538907 -3.114831 7.656513 49.408444 -3.178928 8.135168 22.224659 9.011655 -0.540808 -17.657124 -3.486189 12.936654 59.003235 5.091970 8.130990 -7.794650 -20.288070 -28.434442 15.114677 -31.087265 6.513657 -2.193231 16.410517 3.105060 -0.216973 -3.626786 2.851774 0.645630 -0.078900 0.230480 0.045920 1.423800 38.241005 6.948939 -12.829519 10.026925 -23.582383 -69.492335 27.579012 -22.938939 2.605095 -1.506040 -0.197950 0.327440 -0.022970 -0.157570 
-0.764910 13.375240 0.501550 -40.251513 -14.631080 -44.259061 -16.063197 12.011104 3.326756 -20.121528 -4.640441 -38.456265 31.655093 -1.363685 45.312260 0.339102 8.063773 1.522188 0.377520 0.252820 0.415530 17.804353 -6.167704 5.964392 -33.075426 15.061833 -8.884438 116.102463 -22.255918 9.211645 -2.232833 -9.063297 1.267417 0.140750 0.097890 0.054030 -1.749460 -5.529975 -9.533487 -6.355047 11.913830 50.366616 -3.580673 11.426031 21.432093 9.260396 -0.656170 -17.746985 -3.497995 12.550508 57.766012 4.717680 8.244860 -7.702550 -19.492070 -28.458907 15.027192 -31.671532 5.774032 -2.021207 16.074548 3.789043 -0.120310 -3.658443 2.811251 0.671050 -0.068700 0.207370 0.037390 -0.133950 40.397809 6.631414 -14.665969 9.563050 -25.083869 -73.462953 28.273381 -24.357610 2.750549 -1.488709 -0.244660 0.341330 0.008280 -0.173580 
-0.778200 13.355520 0.547390 -35.321807 -15.068687 -46.931747 -16.124852 11.693616 3.113919 -20.925698 -4.247081 -42.146435 34.495852 -1.030470 37.899939 0.141778 7.154554 1.781417 0.388750 0.311290 0.362130 17.868356 -5.534772 6.657753 -38.930514 17.402536 -7.271255 112.512226 -11.528949 4.956410 -1.945550 -7.998025 1.532545 0.190220 0.128000 0.072150 -1.761731 -5.464302 -9.571354 -9.731295 14.956914 49.668169 -3.962186 13.510381 23.250781 9.287446 -1.563666 -17.162088 -4.634969 13.336676 54.963619 6.462440 7.977920 -8.598660 -17.146059 -27.936647 14.835488 -31.959972 4.575985 -1.891395 16.032055 2.692778 -0.320995 -3.683704 2.874952 0.620390 -0.055560 0.191040 0.038080 -2.959216 41.644442 5.746871 -15.875175 10.143528 -26.508344 -75.534075 27.580096 -24.834399 2.897340 -1.544909 -0.221390 0.333130 0.031290 -0.132150 
-0.739110 13.285840 0.679470 -30.853395 -17.633463 -50.829878 -16.106615 11.753528 2.780049 -20.804674 -2.397149 -45.421934 43.619729 -1.695429 33.004729 0.295347 7.808495 1.530365 0.422740 0.298580 0.372970 17.925989 -5.421818 7.002763 -43.427586 20.499293 -5.332364 113.777843 -9.146147 3.817033 -1.857139 -7.686073 1.594603 0.176130 0.099660 0.170170 -1.877972 -5.150310 -9.522105 -9.133507 16.192068 50.554960 -5.932914 15.643108 23.133375 10.422727 -1.934799 -17.220746 -5.705333 13.738292 55.802336 4.820870 7.547580 -7.689650 -18.565121 -27.437575 14.509969 -31.592169 4.577987 -1.815401 16.360813 3.404798 -0.286997 -3.720575 2.973690 0.621510 -0.039440 0.201430 0.039320 -4.272644 42.390534 4.867511 -17.735626 9.390108 -27.166096 -75.639503 30.001742 -25.217059 3.006857 -1.611733 -0.166750 0.229010 0.037650 -0.137130 
-0.704550 13.203080 0.861650 -28.474330 -18.357136 -53.181932 -15.936915 11.582215 2.977958 -22.617968 -2.309077 -49.042049 52.909626 -1.813903 28.699437 0.579315 8.624597 1.289356 0.481780 0.368710 0.391650 18.039335 -5.959702 6.728244 -45.706099 22.298621 -4.783403 118.093328 -16.932561 6.593446 -2.035687 -8.298719 1.422919 0.199040 0.070030 0.167730 -2.286614 -4.053843 -9.459480 -5.795182 14.441481 51.083554 -10.013875 15.948440 22.986457 11.584372 -1.973989 -18.155455 -6.163471 14.355206 58.647574 5.404130 6.601630 -6.452490 -18.248105 -28.062362 15.156622 -32.401060 6.486546 -2.349421 16.566794 2.318344 -0.318984 -3.641280 3.020555 0.616710 -0.070100 0.232800 0.082420 -6.904877 43.178390 3.290027 -15.093544 9.256113 -29.382036 -74.395926 34.613787 -26.630643 3.289797 -1.651965 -0.130060 0.215750 -0.020000 -0.112210 
-0.667380 13.133420 1.045580 -28.775828 -20.120769 -55.010160 -15.625131 11.125911 3.469001 -23.230782 -3.176344 -53.585524 68.168015 -2.186365 24.135233 1.079104 10.270426 0.818729 0.539990 0.444960 0.402730 18.245870 -6.676858 6.300207 -43.948433 24.039799 -3.685642 119.289533 -24.515305 9.631564 -2.224490 -8.923865 1.247978 0.225110 0.035680 0.150870 -3.112747 -2.243093 -9.516393 2.271142 9.735729 53.492435 -15.281195 15.314515 22.305731 12.581906 -2.442049 -18.862351 -7.734851 14.952611 61.177127 6.483430 5.197900 -7.091110 -18.736053 -27.829837 15.223591 -32.557325 8.223191 -3.083284 17.814889 0.084695 -0.585780 -3.549237 3.039959 0.646610 -0.119270 0.276070 0.115880 -8.249276 41.979157 1.679785 -13.708150 10.145850 -29.582635 -71.322491 36.753932 -25.719425 3.440143 -1.665853 -0.104870 0.236550 -0.057270 -0.094580 
-0.633410 13.086110 1.172830 -26.114562 -20.781199 -57.663359 -15.556935 10.970446 3.810276 -23.113576 -3.674052 -56.965336 82.150415 -1.664457 21.614913 1.547483 11.652511 0.469965 0.538110 0.438290 0.448490 18.280133 -6.947559 5.890045 -45.298835 26.431517 -2.505718 119.773065 -30.654807 12.188046 -2.331029 -9.243392 1.166928 0.193040 -0.004630 0.132000 -3.239716 -1.751229 -9.536505 3.296043 9.429266 54.464303 -16.779129 16.406225 21.418725 12.888577 -1.436276 -19.929480 -6.332054 14.293921 65.629808 7.007570 4.868710 -6.733160 -19.982825 -28.570268 15.557324 -34.208797 10.254552 -4.499369 20.595458 -1.398212 -0.887694 -3.501984 3.020969 0.688560 -0.156340 0.324350 0.096640 -7.826858 42.782758 1.554557 -13.770746 9.019046 -30.132830 -67.757439 37.895716 -23.539869 3.695443 -1.650568 -0.097250 0.253400 -0.072280 -0.108740 
